<svg width="500" height="168" viewBox="0 0 500 168" fill="none" xmlns="http://www.w3.org/2000/svg">
<g clip-path="url(#clip0)">
<path d="M46.3677 0.441782C43.0445 1.71244 37.5709 8.55447 34.3453 15.2987C29.9469 24.6821 27.992 32.9903 27.992 42.5691C27.992 49.5089 28.383 51.757 30.6311 56.7419C32.0972 59.8696 34.4431 63.7794 35.9092 65.3433C39.2325 68.862 45.3903 71.6966 49.5933 71.7943C52.2323 71.7943 52.721 72.1853 52.721 74.2379C52.721 75.6063 51.8414 78.8318 50.8639 81.5686C46.5632 92.8091 37.8641 99.1624 26.4281 99.1624C18.3155 99.1624 12.4509 96.5233 10.3005 91.9294C7.66145 86.358 8.24791 82.937 12.7441 77.4634C15.7741 73.9447 16.9471 71.5988 17.338 68.3733C17.729 64.4636 17.5335 63.8771 15.4809 63.1929C9.90955 61.1403 2.96978 66.3207 0.819433 73.9447C0.232974 76.2905 -0.0602551 80.6889 0.232974 83.8167C1.69912 99.8466 13.7215 108.057 33.6611 106.689C44.6084 105.907 50.2775 103.756 56.2398 97.6963C62.4954 91.5384 65.1344 84.5987 66.4051 71.8921C67.4803 61.1403 67.6757 19.9904 66.7961 8.94544C66.1119 1.51696 66.1119 1.41921 63.0818 1.02824C56.1421 -0.046934 48.2249 -0.340164 46.3677 0.441782ZM52.4278 14.3213C53.0143 15.1033 53.2098 24.6821 52.9165 38.2684C52.5256 59.3809 52.3301 61.0426 50.6684 61.5313C47.4429 62.6064 43.5332 59.8696 40.9919 54.6893C38.7438 50.2908 38.5483 48.6292 38.5483 38.0729C38.5483 25.3663 39.6235 20.7724 43.6309 16.0807C46.1723 12.9529 50.6684 12.0732 52.4278 14.3213ZM170.599 3.08085C170.306 3.86279 170.013 6.79509 170.013 9.5319C170.013 12.3665 169.72 17.5468 169.329 21.1633L168.742 27.8099H164.246C159.848 27.8099 152.712 29.1783 151.735 30.058C151.539 30.3512 151.735 31.4264 152.321 32.5015C153.299 34.2609 155.351 35.0429 165.908 37.1932L168.058 37.5842L167.862 60.8471C167.569 81.1777 167.765 84.7942 169.426 90.0723C172.554 100.433 179.689 106.689 186.922 105.32C190.539 104.636 195.328 99.4556 198.554 92.8091C200.02 89.5836 201.291 87.8242 201.291 88.8994C201.291 92.1249 205.885 100.824 208.328 102.486C209.599 103.365 213.02 104.441 215.854 105.027C224.26 106.591 229.147 103.072 234.132 91.7339L235.696 87.9219L236.576 90.7565C237.651 94.6662 242.929 99.8466 246.448 100.531C250.26 101.313 255.343 99.0647 257.982 95.4482L260.23 92.4181L262.282 96.5233C265.019 101.801 267.951 103.854 274.989 105.125C280.169 106.004 281.049 106.004 283.297 104.245C284.666 103.268 287.011 100.238 288.478 97.5985L291.214 92.8091V104.441L283.981 111.576C275.966 119.395 270.102 129.658 267.267 140.703C262.478 159.568 268.538 167.876 287.207 167.974C295.222 168.071 295.32 168.071 298.056 164.846C302.65 159.372 303.334 155.267 303.921 130.44L304.41 107.471H307.537C309.297 107.471 311.252 106.884 311.936 106.2C313.011 105.125 312.816 104.538 310.861 102.974C309.59 101.997 307.44 101.117 306.071 101.117H303.628L304.116 85.1851C304.507 72.9672 304.996 68.5688 306.267 66.1252L307.928 62.8997L304.703 61.629L301.477 60.2606V51.4637C301.477 43.0578 301.282 42.4714 298.741 39.7345C297.274 38.1707 294.147 36.4113 291.899 35.7271C289.65 35.1406 285.741 33.6745 283.199 32.5015C277.824 30.058 274.989 30.5467 270.297 34.6519C263.651 40.5165 260.328 52.0502 259.057 73.2605C258.275 86.8468 256.809 91.6362 253.095 92.8091C250.358 93.6888 248.501 91.9294 247.23 87.531C245.959 82.7415 245.959 71.6966 247.425 66.2229C248.501 61.9222 248.403 61.629 246.057 59.6742C243.809 57.817 243.516 56.7419 243.125 49.5089C242.538 39.2458 241.072 37.1932 231.982 33.479C213.802 26.0505 204.712 34.2609 201.291 61.4335C200.802 65.6365 199.922 69.644 199.434 70.2304C198.945 70.8169 197.772 74.3356 196.99 77.9521C195.035 86.1626 192.298 91.8317 188.975 93.8843C186.629 95.4482 186.434 95.4482 184.577 93.591C181.644 90.6587 180.765 81.4709 181.351 61.0426C182.035 35.4338 181.644 36.9 188.193 36.0203C191.223 35.7271 196.501 35.3361 199.922 35.3361C206.667 35.2384 207.644 34.3587 204.223 31.2309C202.659 29.8625 200.02 29.276 192.689 28.885L183.208 28.2986L183.404 21.4566C183.501 17.6446 183.892 12.4642 184.186 9.92287C184.772 5.32894 184.674 5.2312 181.547 3.96054C176.073 1.81019 171.186 1.32147 170.599 3.08085ZM287.989 43.8398C290.53 46.0879 290.726 46.6743 290.628 53.4186C290.432 66.6139 287.891 81.4709 284.666 87.9219C282.417 92.4181 278.41 96.2301 275.869 96.2301C274.598 96.2301 272.936 95.1549 271.959 93.591C269.32 89.6813 269.418 63.8771 272.057 56.1554C274.598 48.5314 277.335 44.4262 280.854 42.8623C284.861 41.1029 284.861 41.1029 287.989 43.8398ZM231.396 45.8924C234.035 49.3134 235.012 56.4486 233.155 59.2832C232.373 60.5538 231.298 66.2229 230.711 71.9898C229.245 85.0874 227.29 91.9294 223.772 95.4482C219.666 99.4556 216.245 99.1624 214.29 94.4707C210.479 85.5761 212.042 59.8696 217.027 50.1931C220.546 43.2533 227.681 41.1029 231.396 45.8924ZM290.237 144.417C288.478 155.756 284.275 161.62 278.899 160.35C273.816 159.079 272.252 149.891 275.087 138.748C277.237 130.636 282.417 119.982 286.914 114.801L290.726 110.501L291.019 124.087C291.117 131.613 290.823 140.801 290.237 144.417Z" fill="black"/>
<path d="M364.033 35.0429C359.048 40.2233 356.116 48.0427 354.65 60.5538C353.281 72.283 349.372 87.7264 346.635 92.7113C344.973 95.7414 343.898 96.7188 342.041 96.7188C338.131 96.7188 336.86 91.3429 337.447 76.6815C337.838 67.7868 338.522 62.5087 340.184 57.2306L342.432 49.9976L340.281 48.2382C338.913 47.163 335.59 46.2833 331.485 45.8924C327.868 45.5991 324.252 45.2082 323.47 45.1104C322.492 44.9149 322.003 43.6443 322.003 41.0052C321.906 35.4339 320.928 34.3587 316.921 34.9451C310.959 35.9226 310.959 36.1181 311.447 52.5389C311.838 62.1177 311.545 70.0349 310.763 74.7266C309.004 85.0874 309.101 85.8693 311.056 86.2603C313.695 86.8468 316.237 79.8092 318.289 65.9297L320.146 53.7118H325.913L325.522 66.4184C324.936 91.3429 330.116 104.05 340.868 104.05C345.364 104.05 349.274 101.02 352.108 95.2527L354.552 90.4632L356.116 94.6662C356.996 96.9143 358.95 99.9443 360.417 101.313C363.642 104.343 372.732 106.591 376.446 105.125C379.672 103.952 383.875 98.7714 386.514 93.0046L388.567 88.2152L390.424 92.3204C395.115 102.779 405.867 103.561 412.22 93.982L414.86 89.9745L415.446 95.0572C416.326 101.508 417.401 102.779 422.777 103.659C431.28 104.929 431.28 104.831 433.235 90.17C434.897 76.9747 437.438 65.9297 438.904 65.9297C439.295 65.9297 439.784 72.4785 439.979 80.4934C440.273 93.1023 440.566 95.3504 442.13 97.1098C445.942 101.313 455.423 100.629 455.423 96.1323C455.423 92.7113 459.333 78.5386 462.558 70.3282L465.686 62.5087L466.175 76.1927C466.566 88.3129 466.957 90.4632 469.107 94.6662C470.475 97.403 472.723 100.433 474.19 101.508C477.806 104.147 484.746 104.147 488.265 101.508C495.791 95.9369 503.61 71.7943 497.941 71.7943C496.182 71.7943 495.009 74.1401 494.031 79.125C491.783 91.6362 484.257 98.7714 480.836 91.5384C478.784 87.3355 478.49 70.5236 480.347 62.5087C483.28 49.8021 483.377 50.7795 479.468 47.8472C477.024 45.9901 474.287 44.9149 471.16 44.6217L466.566 44.2307L464.024 49.8998C462.558 53.1254 459.333 61.629 456.694 68.862L452.002 82.0573L451.709 67.2004L451.415 52.2457L448.581 50.7795C440.761 46.7721 436.656 50.3886 432.062 65.5387C430.303 71.4033 428.739 76.5837 428.544 77.1702C428.348 77.6589 428.153 69.7417 428.153 59.3809C428.055 47.7495 427.664 40.4188 427.077 40.0278C426.491 39.6368 423.656 39.1481 420.822 38.8549L415.544 38.2684L415.153 56.7419C414.762 72.283 414.371 76.1927 412.611 81.6664C408.799 93.1023 403.912 96.6211 401.078 89.8768C399.416 85.8693 399.221 71.1101 400.784 65.441C401.762 61.9222 401.664 61.4335 399.416 59.5764C397.364 57.9148 396.973 56.4486 396.386 49.8998C395.604 41.2007 394.138 37.4865 390.717 36.0203C380.454 31.2309 378.695 30.7422 373.612 30.7422C368.334 30.7422 367.845 30.9377 364.033 35.0429ZM383.093 44.4262C386.319 46.1856 388.469 57.2306 386.025 59.6742C385.537 60.1629 384.559 65.2455 384.07 70.8169C382.702 84.1099 380.552 91.6362 377.131 95.3504C373.514 99.1624 369.507 98.9669 367.552 94.8617C364.229 87.8242 364.424 67.9823 367.943 55.7644C370.875 45.8924 377.033 41.2007 383.093 44.4262ZM78.7208 38.3662C77.9388 39.7346 75.8862 86.0648 76.3749 91.5384C77.0591 97.9895 79.2095 100.14 84.8786 100.14C87.3222 100.14 89.8635 99.7488 90.4499 99.3579C91.1341 98.9669 92.3071 94.9594 93.1867 90.3655C95.0439 81.2754 97.9762 71.6966 100.127 67.8846C101.397 65.6365 101.495 66.5162 101.593 77.1702C101.593 90.17 102.961 94.6662 107.457 97.012C110.683 98.6737 116.841 97.8917 120.359 95.2527C123.292 93.1023 123.292 93.1023 124.66 95.0572C127.788 99.5534 141.276 102.192 150.757 100.14C157.893 98.6737 162.193 95.2527 162.193 90.952C162.193 86.749 160.727 84.8919 150.562 76.6815C140.397 68.471 138.735 66.3207 138.735 61.5313C138.735 54.4938 147.434 50.2908 152.517 54.787C154.863 56.9373 156.915 56.4486 159.75 53.1254C161.802 50.6818 162.193 49.2156 161.998 45.9901C161.705 42.6668 161.216 41.7872 158.772 40.6142C153.299 37.9752 135.412 42.7646 129.058 48.6292C123.976 53.3209 122.803 60.5538 126.028 66.8094C127.495 69.8394 127.69 70.7191 126.615 71.1101C125.931 71.4033 125.051 73.5537 124.66 75.8018C123.096 85.6738 117.916 92.4181 114.397 88.9971C113.126 87.6287 112.833 84.6964 112.638 71.4033C112.54 59.1854 112.149 54.6893 110.976 52.4412C109.314 49.2156 105.502 47.7495 102.57 49.3134C100.127 50.584 96.2168 57.3283 92.698 66.2229L89.9612 73.2605L89.8635 57.4261C89.8635 42.0804 89.7657 41.4939 87.7131 40.1255C84.6831 38.2684 79.405 37.291 78.7208 38.3662ZM144.111 84.7941C146.457 86.8468 148.509 89.2903 148.803 90.3655C150.269 95.8391 142.254 97.403 135.998 92.8091C133.946 91.3429 131.209 89.3881 129.645 88.5084C127.983 87.5309 127.201 86.4558 127.592 85.4783C127.886 84.6964 128.668 81.5686 129.254 78.5386L130.329 72.9672L135.216 77.0724C137.855 79.2228 141.863 82.7415 144.111 84.7941Z" fill="black"/>
</g>
<defs>
<clipPath id="clip0">
<rect width="500" height="168" fill="white"/>
</clipPath>
</defs>
</svg>
