<svg width="20" height="25" viewBox="0 0 20 25" fill="none" xmlns="http://www.w3.org/2000/svg">
<path d="M15.8858 0.367943H2.63402C1.44156 0.367943 0.47493 1.11325 0.47493 2.03258V22.9709C0.47493 23.8903 1.44156 24.6355 2.63402 24.6355H15.8858C17.0783 24.6355 18.0449 23.8902 18.0449 22.9709V2.03253C18.0449 1.1132 17.0783 0.367943 15.8858 0.367943Z" fill="#695D67"/>
<path d="M2.51737 22.9699V2.03158C2.51737 1.11225 3.484 0.366943 4.67646 0.366943H2.63402C1.44156 0.366943 0.47493 1.11225 0.47493 2.03158V22.9699C0.47493 23.8893 1.44156 24.6345 2.63402 24.6345H4.67646C3.48406 24.6346 2.51737 23.8893 2.51737 22.9699Z" fill="#544E55"/>
<path d="M2.4422 4.69405V20.7388C2.4422 20.8203 2.52827 20.8867 2.63397 20.8867H15.8857C15.9914 20.8867 16.0775 20.8203 16.0775 20.7388V4.69405H2.4422Z" fill="#DFEBFA"/>
<path d="M4.91238 20.7388V4.69405H2.44214V20.7388C2.44214 20.8203 2.52821 20.8867 2.63391 20.8867H5.10415C4.99845 20.8867 4.91238 20.8203 4.91238 20.7388Z" fill="#B1DBFC"/>
<path d="M9.2599 23.4637C9.80432 23.4637 10.2457 23.1234 10.2457 22.7037C10.2457 22.2839 9.80432 21.9437 9.2599 21.9437C8.71548 21.9437 8.27414 22.2839 8.27414 22.7037C8.27414 23.1234 8.71548 23.4637 9.2599 23.4637Z" fill="#544E55"/>
<path d="M15.8857 2.89114H4.78572V4.79171H16.0775V3.03899C16.0775 2.95745 15.9915 2.89114 15.8857 2.89114Z" fill="#5CB3F8"/>
<path d="M4.91246 2.89114H2.63403C2.52827 2.89114 2.4422 2.95745 2.4422 3.03899V4.79173H4.91246V2.89114Z" fill="#FF4756"/>
<path d="M11.7887 9.17083L9.44224 8.61272C9.37992 8.61087 9.31754 8.60906 9.25458 8.60906C6.6174 8.60906 4.47952 10.2575 4.47952 12.2911C4.47952 13.465 5.19289 14.5098 6.30271 15.1841V14.1986C6.30271 13.5408 6.9675 13.0025 7.77991 13.0025H10.7293C11.5417 13.0025 12.2065 13.5408 12.2065 14.1986V15.1841C13.3163 14.5098 14.0296 13.465 14.0296 12.2911C14.0297 10.9756 13.1344 9.82199 11.7887 9.17083Z" fill="#5CB3F8"/>
<path d="M6.58934 12.2911C6.58934 10.6128 8.04609 9.19778 10.0374 8.75428L9.4423 8.61272C9.37998 8.61087 9.3176 8.60906 9.25465 8.60906C6.61746 8.60906 4.47958 10.2575 4.47958 12.2911C4.47958 13.465 5.19295 14.5098 6.30277 15.1841V14.1986C6.30277 13.8526 6.48681 13.5398 6.77934 13.3209C6.6559 12.9941 6.58934 12.6486 6.58934 12.2911Z" fill="#0290F4"/>
<path d="M9.25466 12.9008C10.2189 12.9008 11.0005 12.2981 11.0005 11.5546C11.0005 10.8111 10.2189 10.2084 9.25466 10.2084C8.29044 10.2084 7.50879 10.8111 7.50879 11.5546C7.50879 12.2981 8.29044 12.9008 9.25466 12.9008Z" fill="#FFCEBE"/>
<path d="M9.25466 11.5546C9.25466 11.0564 9.6059 10.6217 10.1276 10.3889C9.87075 10.2743 9.57278 10.2084 9.25466 10.2084C8.29043 10.2084 7.50879 10.8111 7.50879 11.5546C7.50879 12.2981 8.29043 12.9008 9.25466 12.9008C9.57278 12.9008 9.87075 12.8349 10.1276 12.7203C9.6059 12.4875 9.25466 12.0528 9.25466 11.5546Z" fill="#FFB1A0"/>
<path d="M10.7798 12.9008H7.72945C6.88916 12.9008 6.20163 13.431 6.20163 14.0789V15.1219C7.02931 15.6532 8.09342 15.973 9.25461 15.973C10.4158 15.973 11.4798 15.6532 12.3076 15.1219V14.0789C12.3076 13.431 11.6201 12.9008 10.7798 12.9008Z" fill="#FF656F"/>
<path d="M8.10526 14.03C8.10526 13.4981 8.56866 13.0459 9.19944 12.9008H7.72951C6.88922 12.9008 6.20169 13.431 6.20169 14.0789V15.1219C6.74679 15.4718 7.39486 15.7292 8.10526 15.8647V14.03Z" fill="#FF4756"/>
<path d="M18.2159 2.88938H10.6197C9.89188 2.88938 9.29637 3.34856 9.29637 3.90978V8.15042C9.29637 8.71165 9.89188 9.17083 10.6197 9.17083H15.7403C15.904 9.17083 16.0149 9.29705 15.9578 9.41531C15.8859 9.56399 15.7938 9.70744 15.6818 9.84314L14.9963 10.6741C14.8744 10.8219 15.0762 11.0016 15.2833 10.9297L16.1098 10.6426C16.8766 10.3762 17.4693 9.91628 17.8181 9.36277C17.8921 9.24529 18.0465 9.17078 18.2158 9.17078C18.9436 9.17078 19.5392 8.7116 19.5392 8.15038V3.90978C19.5392 3.34856 18.9437 2.88938 18.2159 2.88938Z" fill="#FFE181"/>
<path d="M11.3903 8.15042V3.90978C11.3903 3.34856 11.9858 2.88938 12.7136 2.88938H10.6197C9.89188 2.88938 9.29637 3.34856 9.29637 3.90978V8.15042C9.29637 8.71165 9.89188 9.17083 10.6197 9.17083H12.7136C11.9858 9.17083 11.3903 8.71165 11.3903 8.15042Z" fill="#FEC458"/>
<path d="M7.1946 1.62255C7.1946 1.82479 7.4072 1.98876 7.66958 1.98876H10.8502C11.1126 1.98876 11.3252 1.82479 11.3252 1.62255C11.3252 1.4203 11.1126 1.25634 10.8502 1.25634H7.66958C7.4072 1.25634 7.1946 1.4203 7.1946 1.62255Z" fill="black"/>
<path d="M10.7206 22.7029C10.7206 22.0819 10.0654 21.5767 9.2599 21.5767C8.45444 21.5767 7.79915 22.0819 7.79915 22.7029C7.79915 23.3239 8.45444 23.8291 9.2599 23.8291C10.0654 23.8291 10.7206 23.324 10.7206 22.7029ZM8.74906 22.7029C8.74906 22.4858 8.9782 22.3091 9.25984 22.3091C9.54147 22.3091 9.77061 22.4858 9.77061 22.7029C9.77061 22.9201 9.54147 23.0967 9.25984 23.0967C8.9782 23.0967 8.74906 22.9201 8.74906 22.7029Z" fill="black"/>
<path d="M11.4037 4.95221H17.3895C17.6519 4.95221 17.8645 4.78825 17.8645 4.586C17.8645 4.38376 17.6519 4.21979 17.3895 4.21979H11.4037C11.1413 4.21979 10.9287 4.38376 10.9287 4.586C10.9287 4.78825 11.1413 4.95221 11.4037 4.95221Z" fill="black"/>
<path d="M11.4037 6.39751H17.3895C17.6519 6.39751 17.8645 6.23355 17.8645 6.0313C17.8645 5.82906 17.6519 5.66509 17.3895 5.66509H11.4037C11.1413 5.66509 10.9287 5.82906 10.9287 6.0313C10.9287 6.23355 11.1413 6.39751 11.4037 6.39751Z" fill="black"/>
<path d="M17.8645 7.47665C17.8645 7.27441 17.6519 7.11044 17.3895 7.11044H11.4037C11.1413 7.11044 10.9287 7.27441 10.9287 7.47665C10.9287 7.6789 11.1413 7.84286 11.4037 7.84286H17.3895C17.6519 7.84286 17.8645 7.6789 17.8645 7.47665Z" fill="black"/>
<path d="M8.19331 0H2.63408C1.18164 0 0 0.911028 0 2.03084V22.9691C0 24.0889 1.18164 25 2.63408 25H15.8858C17.3383 25 18.5199 24.0889 18.5199 22.9691V9.50349C19.36 9.38806 20 8.82107 20 8.14076V3.90871C20 3.22834 19.36 2.66145 18.5199 2.54603V2.03084C18.5199 0.911028 17.3382 0 15.8857 0H10.4098C10.1475 0 9.93486 0.163964 9.93486 0.366208C9.93486 0.568453 10.1475 0.732416 10.4098 0.732416H15.8857C16.8144 0.732416 17.5699 1.31488 17.5699 2.03084V2.5242C16.9498 2.5242 3.32503 2.5242 2.63402 2.5242C2.26631 2.5242 1.96726 2.75481 1.96726 3.03821V20.738C1.96726 21.0215 2.26638 21.2521 2.63402 21.2521H15.8857C16.2534 21.2521 16.5525 21.0215 16.5525 20.738V15.7783C16.5525 15.576 16.3399 15.4121 16.0775 15.4121C15.8151 15.4121 15.6025 15.576 15.6025 15.7783V20.5197H2.91724V5.15719H8.82663V8.14076C8.82663 8.1765 8.82897 8.21175 8.83245 8.24681C6.14194 8.41522 4.01901 10.156 4.01901 12.273C4.01901 14.5104 6.38165 16.3136 9.25994 16.3136C12.1427 16.3136 14.5009 14.5035 14.5009 12.273C14.5009 11.2348 13.9943 10.2624 13.1038 9.52527H15.357C15.3051 9.59865 15.3418 9.55159 14.59 10.4628C14.4219 10.6666 14.4467 10.9262 14.6518 11.1088C14.8604 11.2945 15.1939 11.3449 15.4724 11.2483L15.6026 11.203V14.0694C15.6026 14.2716 15.8152 14.4356 16.0776 14.4356C16.34 14.4356 16.5526 14.2716 16.5526 14.0694V10.8636C16.9369 10.7035 17.2807 10.4967 17.57 10.2575V22.9692C17.57 23.6852 16.8144 24.2677 15.8858 24.2677H2.63402C1.70539 24.2677 0.949908 23.6852 0.949908 22.9692V2.03084C0.949908 1.31488 1.70539 0.732416 2.63402 0.732416H8.19325C8.45563 0.732416 8.66823 0.568453 8.66823 0.366208C8.66823 0.163964 8.45563 0 8.19331 0V0ZM4.43751 4.42477H2.91724V3.25661H4.43751V4.42477ZM8.82663 3.90871V4.42472H5.38748V3.25661H9.03853C8.90237 3.45188 8.82663 3.68107 8.82663 3.90871ZM11.8321 14.9193C11.0732 15.3588 10.1603 15.5812 9.25994 15.5812C8.36152 15.5812 7.44879 15.36 6.68786 14.9193V14.0572C6.68786 13.6108 7.15886 13.2477 7.73771 13.2477H10.7822C11.3611 13.2477 11.8321 13.6108 11.8321 14.0572V14.9193ZM7.99236 11.538C7.99236 10.9991 8.56102 10.5607 9.25994 10.5607C9.95887 10.5607 10.5275 10.9991 10.5275 11.538C10.5275 12.0769 9.95887 12.5153 9.25994 12.5153C8.56102 12.5153 7.99236 12.0769 7.99236 11.538ZM13.5509 12.273C13.5509 12.9737 13.266 13.6238 12.782 14.1593V14.0572C12.782 13.2806 12.0334 12.6366 11.0635 12.5309C11.3237 12.2507 11.4774 11.9081 11.4774 11.538C11.4774 10.5953 10.4827 9.82834 9.25988 9.82834C8.03707 9.82834 7.04233 10.5953 7.04233 11.538C7.04233 11.9081 7.1961 12.2507 7.45626 12.5309C6.48634 12.6367 5.73776 13.2807 5.73776 14.0572V14.1594C5.25378 13.6238 4.96886 12.9737 4.96886 12.273C4.96886 10.4692 6.851 8.99798 9.18059 8.96521C9.51992 9.31702 10.0551 9.52527 10.6223 9.52527H11.6485C12.8424 10.1424 13.5509 11.1619 13.5509 12.273ZM17.3799 9.1906C17.0653 9.68962 16.5593 10.0673 15.8344 10.3192C16.0806 10.0207 16.2435 9.84523 16.3955 9.53088C16.5686 9.17263 16.2254 8.79285 15.7333 8.79285C14.7231 8.79285 11.6926 8.79285 10.6224 8.79285C10.1484 8.79285 9.7766 8.48753 9.7766 8.14076C9.7766 7.71967 9.7766 4.33288 9.7766 3.90876C9.7766 3.54919 10.156 3.25666 10.6224 3.25666H18.2042C18.6705 3.25666 19.05 3.54919 19.05 3.90876V8.14076C19.05 8.50032 18.6705 8.79285 18.2042 8.79285C17.8539 8.79285 17.5301 8.95188 17.3799 9.1906Z" fill="black"/>
</svg>
