<svg width="20" height="20" viewBox="0 0 20 20" fill="none" xmlns="http://www.w3.org/2000/svg">
<path d="M17.3055 13.4131H12.2327C11.553 14.4885 10.8074 15.5206 9.99996 16.5037C9.19256 15.5206 8.4469 14.4885 7.76726 13.4131H2.6944L0.294312 19.7058H19.7056L17.3055 13.4131Z" fill="#DFEEF4"/>
<path d="M10.1664 0C8.79621 4.46145e-05 7.48218 0.544365 6.51333 1.51323C5.54449 2.48209 5.00018 3.79613 5.00013 5.16631C4.96985 10.0954 10.1664 16.2089 10.1664 16.2089C10.1664 16.2089 15.3629 10.0954 15.3326 5.16631C15.3325 3.79613 14.7882 2.48209 13.8194 1.51323C12.8505 0.544365 11.5365 4.46145e-05 10.1664 0ZM10.1664 7.35834C9.73283 7.35834 9.30903 7.22978 8.94856 6.98891C8.58809 6.74805 8.30713 6.4057 8.14123 6.00516C7.97532 5.60462 7.93191 5.16388 8.01649 4.73867C8.10107 4.31346 8.30984 3.92288 8.61639 3.61632C8.92295 3.30976 9.31352 3.10099 9.73872 3.01641C10.1639 2.93183 10.6047 2.97524 11.0052 3.14115C11.4057 3.30706 11.7481 3.58801 11.9889 3.94849C12.2298 4.30897 12.3583 4.73277 12.3583 5.16631C12.3585 5.4542 12.3018 5.7393 12.1917 6.00529C12.0816 6.27129 11.9201 6.51298 11.7166 6.71655C11.513 6.92012 11.2713 7.08158 11.0053 7.1917C10.7393 7.30182 10.4542 7.35845 10.1664 7.35834Z" fill="#F45858"/>
<path d="M17.8629 14.8719L8.1764 18.3172L4.4014 13.4133H7.76761C8.44708 14.4886 9.19263 15.5207 9.99997 16.5037C10.8073 15.5207 11.5529 14.4886 12.2323 13.4133H17.306L17.8629 14.8719Z" fill="#F2DA30"/>
<path d="M4.27356 19.7058L13.8618 16.2951L16.4868 19.7058H4.27356Z" fill="#3EA2E5"/>
<path d="M1.10702 17.5748C1.14312 17.5887 1.18161 17.5953 1.22026 17.5942C1.25892 17.5932 1.29699 17.5845 1.3323 17.5687C1.3676 17.5529 1.39944 17.5304 1.426 17.5022C1.45255 17.4741 1.4733 17.441 1.48704 17.4049L1.7562 16.6983C1.78203 16.6259 1.77846 16.5462 1.74625 16.4763C1.71404 16.4064 1.65577 16.3519 1.58389 16.3245C1.51201 16.297 1.43225 16.2988 1.36167 16.3295C1.29109 16.3601 1.23531 16.4171 1.20627 16.4884L0.93711 17.1949C0.923299 17.231 0.91674 17.2695 0.917806 17.3081C0.918872 17.3468 0.927543 17.3848 0.943324 17.4201C0.959104 17.4554 0.981684 17.4872 1.00977 17.5137C1.03786 17.5403 1.07091 17.561 1.10702 17.5748Z" fill="black"/>
<path d="M19.9805 19.6006L17.5806 13.3089C17.5593 13.2532 17.5216 13.2052 17.4725 13.1714C17.4234 13.1376 17.3652 13.1195 17.3055 13.1194H12.7634C12.7912 13.0742 12.8188 13.0303 12.8465 12.9848C14.5942 10.0913 15.4737 7.56014 15.4611 5.46266C15.4615 4.92923 15.3838 4.39861 15.2305 3.8877C15.208 3.81292 15.1567 3.75014 15.0879 3.71316C15.0191 3.67619 14.9385 3.66805 14.8637 3.69054C14.7889 3.71302 14.7262 3.76429 14.6892 3.83307C14.6522 3.90185 14.6441 3.9825 14.6666 4.05727C14.8036 4.51372 14.8729 4.98778 14.8723 5.46434C14.8977 9.64483 10.9881 14.8026 9.99997 16.0394C9.01181 14.8031 5.10206 9.64668 5.12746 5.46131C5.1276 4.56947 5.37246 3.69476 5.83539 2.93247C6.29832 2.17018 6.96155 1.54954 7.75284 1.13817C8.54414 0.726796 9.43314 0.540461 10.323 0.599461C11.2129 0.65846 12.0695 0.960533 12.7996 1.47277C12.8635 1.51768 12.9426 1.53537 13.0195 1.52194C13.0965 1.50852 13.1649 1.46508 13.2098 1.40119C13.2547 1.3373 13.2724 1.25819 13.259 1.18125C13.2456 1.10432 13.2021 1.03587 13.1382 0.990965C12.3201 0.416864 11.3601 0.0782547 10.3628 0.0120117C9.36554 -0.0542312 8.36921 0.154432 7.48232 0.615278C6.59543 1.07612 5.85198 1.77148 5.33295 2.62563C4.81391 3.47978 4.53918 4.45997 4.53867 5.45946C4.52605 7.55879 5.40554 10.0903 7.15324 12.9835C7.181 13.0294 7.20859 13.0733 7.23635 13.1181H2.69424C2.63461 13.1181 2.57639 13.1362 2.52727 13.1701C2.47816 13.2039 2.44047 13.2518 2.41919 13.3075L1.72946 15.118C1.71567 15.1541 1.70914 15.1926 1.71023 15.2312C1.71131 15.2699 1.72 15.3079 1.73579 15.3432C1.76769 15.4145 1.82659 15.4702 1.89954 15.498C1.97248 15.5259 2.0535 15.5236 2.12477 15.4917C2.19604 15.4598 2.25172 15.4009 2.27956 15.3279L2.89762 13.7069H4.25689L7.69527 18.1759L4.22257 19.411H0.721784L0.993974 18.6969C1.02003 18.6243 1.01658 18.5445 0.984368 18.4744C0.952159 18.4044 0.893761 18.3498 0.821721 18.3223C0.749681 18.2949 0.669748 18.2968 0.599097 18.3276C0.528445 18.3585 0.472713 18.4158 0.443874 18.4873L0.0194394 19.6008C0.00237638 19.6454 -0.00358368 19.6934 0.00207377 19.7408C0.00773123 19.7882 0.0248362 19.8335 0.0519121 19.8728C0.0789879 19.9121 0.115221 19.9442 0.157483 19.9664C0.199746 19.9885 0.246768 20.0001 0.294489 20H19.7054C19.7532 20.0001 19.8002 19.9885 19.8425 19.9664C19.8848 19.9442 19.921 19.9121 19.9481 19.8727C19.9752 19.8334 19.9923 19.7881 19.9979 19.7407C20.0036 19.6933 19.9976 19.6452 19.9805 19.6006ZM4.99944 13.7074H7.60527C8.26911 14.7452 8.99374 15.7428 9.77539 16.695C9.80302 16.7275 9.83739 16.7536 9.87611 16.7715C9.91483 16.7894 9.95698 16.7986 9.99963 16.7986C10.0423 16.7986 10.0844 16.7894 10.1232 16.7715C10.1619 16.7536 10.1962 16.7275 10.2239 16.695C11.0055 15.7428 11.7302 14.7452 12.394 13.7074H17.1021L17.479 14.6957L8.27884 17.9685L4.99944 13.7074ZM8.26858 18.5965H8.27026L13.759 16.645L15.8879 19.4112H5.97936L8.26858 18.5965ZM16.6316 19.4107L14.3422 16.4366L17.6899 15.246L19.2785 19.4112L16.6316 19.4107Z" fill="black"/>
</svg>
