<svg width="20" height="20" viewBox="0 0 20 20" fill="none" xmlns="http://www.w3.org/2000/svg">
<g clip-path="url(#clip0)">
<path d="M19.5827 1.33L12.2697 6.61699L11.0697 7.48656C10.434 7.95613 9.5662 7.95613 8.93053 7.48656L7.73053 6.61699L0.408813 1.33871C0.815767 0.76914 1.47405 0.431757 2.17405 0.434374H17.8262C18.521 0.434374 19.174 0.767421 19.5827 1.33Z" fill="#FFD54F"/>
<path d="M0.40833 1.33871L7.73009 6.61699L0.634423 13.7126C0.226572 13.3039 -0.00124075 12.75 -0.000381374 12.1735V2.60828C-0.00210012 2.15176 0.140517 1.70742 0.40833 1.33871Z" fill="#FFC107"/>
<path d="M20.0002 2.60828V12.1735C20.001 12.75 19.7732 13.3039 19.3654 13.7127L12.2697 6.61699L19.5828 1.33C19.8541 1.70047 20.0002 2.14828 20.0002 2.60828Z" fill="#FFC107"/>
<path d="M13.0435 16.0865C12.4661 16.0865 12.174 15.6517 12.174 14.7822C12.1879 13.5674 11.2148 12.5709 10.0001 12.5569C8.78529 12.543 7.78877 13.5161 7.77482 14.7308C7.76091 15.9456 8.73396 16.9421 9.94873 16.9561C10.6 16.9639 11.2209 16.6822 11.6444 16.1883C11.9331 16.683 12.4713 16.9787 13.0435 16.9561C14.7827 16.9561 14.7827 15.3195 14.7827 14.7822C14.7827 12.1404 12.6418 9.99956 10.0001 9.99956C7.3583 9.99956 5.21744 12.1404 5.21744 14.7813C5.21744 17.4222 7.35834 19.5639 10.0001 19.5639C11.2409 19.5639 12.4331 19.0813 13.3253 18.2187C13.4983 18.0509 13.5018 17.7743 13.334 17.6022C13.1662 17.4291 12.8897 17.4256 12.7166 17.5934C11.161 19.0934 8.68357 19.0491 7.18357 17.4935C5.68357 15.9378 5.72791 13.4604 7.28357 11.9604C8.83923 10.4604 11.3166 10.5048 12.8166 12.0604C13.521 12.7908 13.914 13.7665 13.9131 14.7813C13.9131 15.757 13.694 16.0865 13.0435 16.0865ZM10.0001 16.0865C9.28006 16.0865 8.69572 15.5022 8.69572 14.7822C8.69572 14.0622 9.28006 13.4778 10.0001 13.4778C10.7201 13.4778 11.3044 14.0613 11.3044 14.7822C11.3044 15.503 10.7201 16.0865 10.0001 16.0865Z" fill="#455A64"/>
<path d="M12.2696 6.61699L11.0696 7.48656C10.4339 7.95613 9.56612 7.95613 8.93045 7.48656L7.73045 6.61699L0.634827 13.7126C1.04354 14.1204 1.59744 14.3483 2.17397 14.3474H4.36963C4.6053 11.2378 7.31658 8.90824 10.4253 9.14305C13.2079 9.35348 15.4192 11.5648 15.6296 14.3474H17.8262C18.4027 14.3482 18.9566 14.1204 19.3653 13.7126L12.2696 6.61699Z" fill="#FFA000"/>
<path d="M17.8261 14.3474H16.087C15.847 14.3474 15.6522 14.1527 15.6522 13.9127C15.6522 13.6727 15.847 13.4779 16.087 13.4779H17.8261C18.5452 13.4779 19.1304 12.8927 19.1304 12.1736V2.60828C19.1304 1.88914 18.5452 1.30395 17.8261 1.30395H2.17395C1.4548 1.30395 0.869609 1.88828 0.869609 2.60828V12.1735C0.869609 12.8927 1.45484 13.4779 2.17395 13.4779H3.91309C4.15309 13.4779 4.34785 13.6718 4.34785 13.9126C4.34785 14.1535 4.15309 14.3474 3.91309 14.3474H2.17395C0.975664 14.3474 0 13.3718 0 12.1735V2.60828C0 1.41 0.975664 0.434376 2.17395 0.434376H17.8261C19.0252 0.434376 20 1.40914 20 2.60828V12.1735C20 13.3718 19.0252 14.3474 17.8261 14.3474Z" fill="black"/>
<path d="M10.0009 8.27347C9.53566 8.27347 9.07046 8.12824 8.67308 7.83781L1.91999 2.96047C1.72433 2.81961 1.68085 2.54828 1.82175 2.35351C1.96175 2.15785 2.23304 2.11437 2.42871 2.25527L9.18523 7.13437C9.6748 7.49175 10.3278 7.49175 10.8139 7.13613L17.5713 2.25527C17.7661 2.11527 18.0374 2.15789 18.1783 2.35265C18.3191 2.54742 18.2748 2.81961 18.0809 2.95961L11.3244 7.83871C10.9296 8.12828 10.4652 8.27347 10.0009 8.27347Z" fill="black"/>
<path d="M2.17387 12.6083C2.06258 12.6083 1.95125 12.5657 1.86605 12.4813C1.69648 12.3118 1.69648 12.0361 1.86605 11.8666L6.21387 7.51875C6.38344 7.34918 6.6591 7.34918 6.82863 7.51875C6.9982 7.68832 6.9982 7.96398 6.82863 8.13352L2.48082 12.4813C2.39644 12.5657 2.28516 12.6083 2.17387 12.6083Z" fill="black"/>
<path d="M17.8262 12.6083C17.7149 12.6083 17.6035 12.5657 17.5183 12.4813L13.1705 8.13348C13.001 7.96391 13.001 7.68824 13.1705 7.51871C13.3401 7.34914 13.6158 7.34914 13.7853 7.51871L18.1331 11.8665C18.3027 12.0361 18.3027 12.3118 18.1331 12.4813C18.0488 12.5657 17.9375 12.6083 17.8262 12.6083Z" fill="black"/>
<path d="M10.0026 19.5657C9.97565 19.5657 9.9487 19.5657 9.92174 19.5648C8.64436 19.5439 7.45217 19.0266 6.5635 18.1083C4.72959 16.2126 4.78002 13.1796 6.67479 11.3465C7.59303 10.4578 8.8226 9.97957 10.0791 10.0013C11.3557 10.0221 12.5487 10.5395 13.4374 11.457C14.3043 12.3535 14.7826 13.5343 14.7826 14.7822C14.7826 15.0222 14.5878 15.217 14.3478 15.217C14.1078 15.217 13.9131 15.0222 13.9131 14.7822C13.9131 13.7613 13.5218 12.7952 12.8113 12.0613C12.0844 11.3109 11.1087 10.8874 10.0635 10.87C9.03917 10.87 8.02959 11.2448 7.27826 11.9718C5.72783 13.4718 5.68697 15.9536 7.18783 17.504C7.91479 18.2553 8.89045 18.6788 9.93565 18.6953C10.9844 18.7318 11.9687 18.3214 12.7209 17.5944C12.8931 17.4283 13.1687 17.4318 13.3357 17.6048C13.5026 17.7779 13.4983 18.0527 13.3252 18.2196C12.4269 19.0891 11.2505 19.5657 10.0026 19.5657Z" fill="black"/>
<path d="M10.0001 16.9561C8.80186 16.9561 7.8262 15.9804 7.8262 14.7822C7.8262 13.5839 8.80186 12.6083 10.0001 12.6083C11.1983 12.6083 12.174 13.583 12.174 14.7822C12.174 15.9813 11.1984 16.9561 10.0001 16.9561ZM10.0001 13.4779C9.28096 13.4779 8.69577 14.0631 8.69577 14.7822C8.69577 15.5013 9.281 16.0865 10.0001 16.0865C10.7192 16.0865 11.3044 15.5013 11.3044 14.7822C11.3045 14.063 10.7192 13.4779 10.0001 13.4779Z" fill="black"/>
<path d="M13.0434 16.9561C11.9546 16.9561 11.3042 16.143 11.3042 14.7822C11.3042 14.5422 11.499 14.3474 11.739 14.3474C11.979 14.3474 12.1737 14.5413 12.1737 14.7822C12.1737 15.6474 12.4668 16.0865 13.0433 16.0865C13.6937 16.0865 13.9129 15.757 13.9129 14.7822C13.9129 14.5422 14.1076 14.3474 14.3476 14.3474C14.5876 14.3474 14.7824 14.5413 14.7824 14.7822C14.7825 15.3196 14.7825 16.9561 13.0434 16.9561Z" fill="black"/>
</g>
<defs>
<clipPath id="clip0">
<rect width="20" height="20" fill="white"/>
</clipPath>
</defs>
</svg>
